<svg id="Layer_1" data-name="Layer 1" xmlns="http://www.w3.org/2000/svg" viewBox="0 0 612 612"><defs><style>.cls-1{fill:#fff;}</style></defs><title>disney-icon</title><path id="bg" d="M612,510c0,56.1-45.9,102-102,102H102C45.9,612,0,566.1,0,510V102C0,45.9,45.9,0,102,0H510c56.1,0,102,45.9,102,102Z"/><path class="cls-1" d="M519.39,256.16c-4.75-35.77-13.6-64.15-30.76-96.63-2.9-5.28-18.22-30.62-22-36.17C451.41,101.06,434.64,85.62,409,70c-5.28-3.3-15.71-9-20.46-6.07-4.49,2.51-3.83,5.94-.79,9.9,2.77,3.7,12.8,13.07,19.4,19.93,21.91,23.1,39.6,61.64,48.71,92.53,15.71,53.07,15,110.88,1.85,165.79-11.09,46.73-31.55,95.57-70.49,122.63-13.73,9.5-37.62,20.33-56.23,19.4-18.08-.92-33.13-9.9-42.64-25.61-1.58-2.77-3.83-6.6-3.83-6.6s19.93-14.78,30.23-23.5c28.78-24.55,48.58-60.59,54.52-98.87,4-25.48,3.17-64-11-88.44-8.18-14-24-20.72-39.47-20.33-18.61.4-39.73,10.3-52.93,21.52a152,152,0,0,0-32.87,40.26c-10.3,18-15.31,35.24-17.82,57.95-3.17,27.59.26,67.72,8.71,92.93,3,9,7.66,21,7.66,21s-5.94,2.77-10.3,4.49c-16.1,6.47-28.64,7-42.11-2.64-12.8-9-21.25-28.38-24.82-42.77-2.51-10.56-4.22-26.93-4.62-38.15-2-54.78,18.48-125.53,44.22-170.15,2.77-4.62,23.1-35.24,27.72-41.32,4.09-5.81,24.16-30.49,27.72-34.19,4.09-4.36,11.48-11.62,14.39-17,1.85-3.43,1.85-5.54-.53-8.18-4.75-5-12.94-2.38-19.14.53-3.3,1.58-19.93,11.22-23,13.46-27.32,19.4-50.16,46.6-67.72,74.05-27.85,43.56-46.6,92.8-53.2,144.67-4,30.62-3.17,60.59,6.34,89.37,6.6,19.27,21.25,40.79,38.68,52,24,15.58,53.2,17.82,79.33,8.05a109.56,109.56,0,0,0,13.33-6.2c2-1.32,3.83-2.64,4.36-2.51s4,6.2,6.86,11.22c4.36,7.79,15.18,18.88,21.65,24.16,16.76,13.6,33.92,20.59,54.78,23.1,38.15,4.62,72.87-12.14,104.94-37.88,6.47-5.28,20.06-17.16,25.61-23,2.11-2.24,18.22-23.89,20.86-28,11.09-17.42,21.78-38.15,28.65-58.21C521.5,353.58,525.33,301.84,519.39,256.16ZM273.73,413c-3.7-26-.26-64.42,3.17-86.86,2.11-13.86,3.7-21.25,7.52-33.4,2.64-8.45,7.13-21.91,11.75-29.17,3.3-5.28,6.34-9.11,11.75-8.18,4.49.66,6.6,3.43,9.5,7.92,2.51,4.22,3.56,8.18,4.36,13.6.92,6.34,1.45,17.82,1.45,17.82h.4c.26,0,0,14.52-.4,16.63-3.3,17.56-2.38,23.36-7.52,39.2-2.24,6.86-5,15.58-7,21.12-1.06,2.9-6.86,15.31-7.66,16.76-.53,1.32-4.22,7.66-5.68,10.16-.66,1.19-8.71,13.33-10.43,15.18-4,4.22-9.37,10.3-9.37,10.3S274.39,417.47,273.73,413Z"/></svg>